ISO-10303-21;
HEADER;
/* Generated by software containing ST-Developer
 * from STEP Tools, Inc. (www.steptools.com) 
 */

FILE_DESCRIPTION(
/* description */ (''),
/* implementation_level */ '2;1');

FILE_NAME(
/* name */ 'Expansion Cover 2 v2.step',
/* time_stamp */ '2025-08-19T14:26:51+02:00',
/* author */ (''),
/* organization */ (''),
/* preprocessor_version */ 'ST-DEVELOPER v20.1',
/* originating_system */ 'Autodesk Translation Framework v14.10.0.0',
/* authorisation */ '');

FILE_SCHEMA (('AUTOMOTIVE_DESIGN { 1 0 10303 214 3 1 1 }'));
ENDSEC;

DATA;
#10=MECHANICAL_DESIGN_GEOMETRIC_PRESENTATION_REPRESENTATION('',(#13),#1281);
#11=SHAPE_REPRESENTATION_RELATIONSHIP('SRR','None',#1288,#12);
#12=ADVANCED_BREP_SHAPE_REPRESENTATION('',(#14),#1280);
#13=STYLED_ITEM('',(#1297),#14);
#14=MANIFOLD_SOLID_BREP('ExpansionCover2',#753);
#15=FACE_BOUND('',#100,.T.);
#16=PLANE('',#770);
#17=PLANE('',#777);
#18=PLANE('',#784);
#19=PLANE('',#791);
#20=PLANE('',#798);
#21=PLANE('',#802);
#22=PLANE('',#809);
#23=PLANE('',#810);
#24=PLANE('',#811);
#25=PLANE('',#812);
#26=PLANE('',#817);
#27=PLANE('',#818);
#28=PLANE('',#819);
#29=PLANE('',#820);
#30=PLANE('',#821);
#31=PLANE('',#822);
#32=PLANE('',#823);
#33=PLANE('',#824);
#34=PLANE('',#827);
#35=PLANE('',#830);
#36=PLANE('',#833);
#37=PLANE('',#836);
#38=PLANE('',#837);
#39=FACE_OUTER_BOUND('',#78,.T.);
#40=FACE_OUTER_BOUND('',#79,.T.);
#41=FACE_OUTER_BOUND('',#80,.T.);
#42=FACE_OUTER_BOUND('',#81,.T.);
#43=FACE_OUTER_BOUND('',#82,.T.);
#44=FACE_OUTER_BOUND('',#83,.T.);
#45=FACE_OUTER_BOUND('',#84,.T.);
#46=FACE_OUTER_BOUND('',#85,.T.);
#47=FACE_OUTER_BOUND('',#86,.T.);
#48=FACE_OUTER_BOUND('',#87,.T.);
#49=FACE_OUTER_BOUND('',#88,.T.);
#50=FACE_OUTER_BOUND('',#89,.T.);
#51=FACE_OUTER_BOUND('',#90,.T.);
#52=FACE_OUTER_BOUND('',#91,.T.);
#53=FACE_OUTER_BOUND('',#92,.T.);
#54=FACE_OUTER_BOUND('',#93,.T.);
#55=FACE_OUTER_BOUND('',#94,.T.);
#56=FACE_OUTER_BOUND('',#95,.T.);
#57=FACE_OUTER_BOUND('',#96,.T.);
#58=FACE_OUTER_BOUND('',#97,.T.);
#59=FACE_OUTER_BOUND('',#98,.T.);
#60=FACE_OUTER_BOUND('',#99,.T.);
#61=FACE_OUTER_BOUND('',#101,.T.);
#62=FACE_OUTER_BOUND('',#102,.T.);
#63=FACE_OUTER_BOUND('',#103,.T.);
#64=FACE_OUTER_BOUND('',#104,.T.);
#65=FACE_OUTER_BOUND('',#105,.T.);
#66=FACE_OUTER_BOUND('',#106,.T.);
#67=FACE_OUTER_BOUND('',#107,.T.);
#68=FACE_OUTER_BOUND('',#108,.T.);
#69=FACE_OUTER_BOUND('',#109,.T.);
#70=FACE_OUTER_BOUND('',#110,.T.);
#71=FACE_OUTER_BOUND('',#111,.T.);
#72=FACE_OUTER_BOUND('',#112,.T.);
#73=FACE_OUTER_BOUND('',#113,.T.);
#74=FACE_OUTER_BOUND('',#114,.T.);
#75=FACE_OUTER_BOUND('',#115,.T.);
#76=FACE_OUTER_BOUND('',#116,.T.);
#77=FACE_OUTER_BOUND('',#117,.T.);
#78=EDGE_LOOP('',(#482,#483,#484,#485));
#79=EDGE_LOOP('',(#486,#487,#488,#489));
#80=EDGE_LOOP('',(#490,#491,#492,#493));
#81=EDGE_LOOP('',(#494,#495,#496,#497));
#82=EDGE_LOOP('',(#498,#499,#500,#501));
#83=EDGE_LOOP('',(#502,#503,#504,#505));
#84=EDGE_LOOP('',(#506,#507,#508,#509));
#85=EDGE_LOOP('',(#510,#511,#512,#513));
#86=EDGE_LOOP('',(#514,#515,#516,#517));
#87=EDGE_LOOP('',(#518,#519,#520,#521));
#88=EDGE_LOOP('',(#522,#523,#524,#525));
#89=EDGE_LOOP('',(#526,#527,#528,#529));
#90=EDGE_LOOP('',(#530,#531,#532,#533));
#91=EDGE_LOOP('',(#534,#535,#536,#537));
#92=EDGE_LOOP('',(#538,#539,#540,#541));
#93=EDGE_LOOP('',(#542,#543,#544,#545));
#94=EDGE_LOOP('',(#546,#547,#548,#549));
#95=EDGE_LOOP('',(#550,#551,#552,#553));
#96=EDGE_LOOP('',(#554,#555,#556,#557));
#97=EDGE_LOOP('',(#558,#559,#560,#561));
#98=EDGE_LOOP('',(#562,#563,#564,#565));
#99=EDGE_LOOP('',(#566,#567,#568,#569,#570,#571,#572,#573));
#100=EDGE_LOOP('',(#574,#575,#576,#577,#578,#579,#580,#581,#582,#583,#584,
#585,#586,#587,#588,#589,#590,#591,#592,#593,#594,#595,#596,#597,#598,#599,
#600,#601));
#101=EDGE_LOOP('',(#602,#603,#604,#605));
#102=EDGE_LOOP('',(#606,#607,#608,#609));
#103=EDGE_LOOP('',(#610,#611,#612,#613));
#104=EDGE_LOOP('',(#614,#615,#616,#617));
#105=EDGE_LOOP('',(#618,#619,#620,#621));
#106=EDGE_LOOP('',(#622,#623,#624,#625));
#107=EDGE_LOOP('',(#626,#627,#628,#629));
#108=EDGE_LOOP('',(#630,#631,#632,#633));
#109=EDGE_LOOP('',(#634,#635,#636,#637));
#110=EDGE_LOOP('',(#638,#639,#640,#641));
#111=EDGE_LOOP('',(#642,#643,#644,#645));
#112=EDGE_LOOP('',(#646,#647,#648,#649));
#113=EDGE_LOOP('',(#650,#651,#652,#653));
#114=EDGE_LOOP('',(#654,#655,#656,#657));
#115=EDGE_LOOP('',(#658,#659,#660,#661));
#116=EDGE_LOOP('',(#662,#663,#664,#665,#666,#667,#668,#669));
#117=EDGE_LOOP('',(#670,#671,#672,#673,#674,#675,#676,#677,#678,#679,#680,
#681,#682,#683,#684,#685,#686,#687,#688,#689,#690,#691,#692,#693,#694,#695,
#696,#697));
#118=LINE('',#1064,#194);
#119=LINE('',#1067,#195);
#120=LINE('',#1070,#196);
#121=LINE('',#1072,#197);
#122=LINE('',#1073,#198);
#123=LINE('',#1079,#199);
#124=LINE('',#1085,#200);
#125=LINE('',#1088,#201);
#126=LINE('',#1091,#202);
#127=LINE('',#1093,#203);
#128=LINE('',#1094,#204);
#129=LINE('',#1100,#205);
#130=LINE('',#1106,#206);
#131=LINE('',#1109,#207);
#132=LINE('',#1112,#208);
#133=LINE('',#1114,#209);
#134=LINE('',#1115,#210);
#135=LINE('',#1121,#211);
#136=LINE('',#1127,#212);
#137=LINE('',#1130,#213);
#138=LINE('',#1133,#214);
#139=LINE('',#1135,#215);
#140=LINE('',#1136,#216);
#141=LINE('',#1142,#217);
#142=LINE('',#1148,#218);
#143=LINE('',#1151,#219);
#144=LINE('',#1154,#220);
#145=LINE('',#1156,#221);
#146=LINE('',#1157,#222);
#147=LINE('',#1163,#223);
#148=LINE('',#1166,#224);
#149=LINE('',#1169,#225);
#150=LINE('',#1171,#226);
#151=LINE('',#1172,#227);
#152=LINE('',#1178,#228);
#153=LINE('',#1184,#229);
#154=LINE('',#1187,#230);
#155=LINE('',#1189,#231);
#156=LINE('',#1190,#232);
#157=LINE('',#1192,#233);
#158=LINE('',#1193,#234);
#159=LINE('',#1195,#235);
#160=LINE('',#1196,#236);
#161=LINE('',#1202,#237);
#162=LINE('',#1206,#238);
#163=LINE('',#1210,#239);
#164=LINE('',#1213,#240);
#165=LINE('',#1214,#241);
#166=LINE('',#1216,#242);
#167=LINE('',#1218,#243);
#168=LINE('',#1219,#244);
#169=LINE('',#1221,#245);
#170=LINE('',#1222,#246);
#171=LINE('',#1223,#247);
#172=LINE('',#1226,#248);
#173=LINE('',#1227,#249);
#174=LINE('',#1229,#250);
#175=LINE('',#1232,#251);
#176=LINE('',#1233,#252);
#177=LINE('',#1235,#253);
#178=LINE('',#1238,#254);
#179=LINE('',#1239,#255);
#180=LINE('',#1241,#256);
#181=LINE('',#1243,#257);
#182=LINE('',#1246,#258);
#183=LINE('',#1248,#259);
#184=LINE('',#1249,#260);
#185=LINE('',#1253,#261);
#186=LINE('',#1256,#262);
#187=LINE('',#1257,#263);
#188=LINE('',#1261,#264);
#189=LINE('',#1264,#265);
#190=LINE('',#1265,#266);
#191=LINE('',#1269,#267);
#192=LINE('',#1272,#268);
#193=LINE('',#1273,#269);
#194=VECTOR('',#844,10.);
#195=VECTOR('',#847,10.);
#196=VECTOR('',#850,10.);
#197=VECTOR('',#851,10.);
#198=VECTOR('',#852,10.);
#199=VECTOR('',#859,10.);
#200=VECTOR('',#864,10.);
#201=VECTOR('',#867,10.);
#202=VECTOR('',#870,10.);
#203=VECTOR('',#871,10.);
#204=VECTOR('',#872,10.);
#205=VECTOR('',#879,10.);
#206=VECTOR('',#884,10.);
#207=VECTOR('',#887,10.);
#208=VECTOR('',#890,10.);
#209=VECTOR('',#891,10.);
#210=VECTOR('',#892,10.);
#211=VECTOR('',#899,10.);
#212=VECTOR('',#904,10.);
#213=VECTOR('',#907,10.);
#214=VECTOR('',#910,10.);
#215=VECTOR('',#911,10.);
#216=VECTOR('',#912,10.);
#217=VECTOR('',#919,10.);
#218=VECTOR('',#924,10.);
#219=VECTOR('',#927,10.);
#220=VECTOR('',#930,10.);
#221=VECTOR('',#931,10.);
#222=VECTOR('',#932,10.);
#223=VECTOR('',#937,10.);
#224=VECTOR('',#940,10.);
#225=VECTOR('',#943,10.);
#226=VECTOR('',#944,10.);
#227=VECTOR('',#945,10.);
#228=VECTOR('',#952,10.);
#229=VECTOR('',#959,10.);
#230=VECTOR('',#962,10.);
#231=VECTOR('',#963,10.);
#232=VECTOR('',#964,10.);
#233=VECTOR('',#967,10.);
#234=VECTOR('',#968,10.);
#235=VECTOR('',#971,10.);
#236=VECTOR('',#972,10.);
#237=VECTOR('',#977,10.);
#238=VECTOR('',#980,10.);
#239=VECTOR('',#983,10.);
#240=VECTOR('',#986,10.);
#241=VECTOR('',#987,10.);
#242=VECTOR('',#988,10.);
#243=VECTOR('',#989,10.);
#244=VECTOR('',#990,10.);
#245=VECTOR('',#991,10.);
#246=VECTOR('',#992,10.);
#247=VECTOR('',#993,10.);
#248=VECTOR('',#996,10.);
#249=VECTOR('',#997,10.);
#250=VECTOR('',#1000,10.);
#251=VECTOR('',#1003,10.);
#252=VECTOR('',#1004,10.);
#253=VECTOR('',#1007,10.);
#254=VECTOR('',#1010,10.);
#255=VECTOR('',#1011,10.);
#256=VECTOR('',#1014,10.);
#257=VECTOR('',#1017,10.);
#258=VECTOR('',#1020,10.);
#259=VECTOR('',#1021,10.);
#260=VECTOR('',#1022,10.);
#261=VECTOR('',#1027,10.);
#262=VECTOR('',#1030,10.);
#263=VECTOR('',#1031,10.);
#264=VECTOR('',#1036,10.);
#265=VECTOR('',#1039,10.);
#266=VECTOR('',#1040,10.);
#267=VECTOR('',#1045,10.);
#268=VECTOR('',#1048,10.);
#269=VECTOR('',#1049,10.);
#270=CIRCLE('',#768,1.);
#271=CIRCLE('',#769,1.);
#272=CIRCLE('',#772,1.);
#273=CIRCLE('',#773,1.);
#274=CIRCLE('',#775,1.);
#275=CIRCLE('',#776,1.);
#276=CIRCLE('',#779,1.);
#277=CIRCLE('',#780,1.);
#278=CIRCLE('',#782,1.);
#279=CIRCLE('',#783,1.);
#280=CIRCLE('',#786,1.);
#281=CIRCLE('',#787,1.);
#282=CIRCLE('',#789,1.);
#283=CIRCLE('',#790,1.);
#284=CIRCLE('',#793,1.);
#285=CIRCLE('',#794,1.);
#286=CIRCLE('',#796,1.);
#287=CIRCLE('',#797,1.);
#288=CIRCLE('',#800,1.);
#289=CIRCLE('',#801,1.);
#290=CIRCLE('',#804,1.);
#291=CIRCLE('',#805,1.);
#292=CIRCLE('',#807,1.);
#293=CIRCLE('',#808,1.);
#294=CIRCLE('',#813,0.8);
#295=CIRCLE('',#814,0.8);
#296=CIRCLE('',#815,0.8);
#297=CIRCLE('',#816,0.800000000000001);
#298=CIRCLE('',#826,0.8);
#299=CIRCLE('',#829,0.8);
#300=CIRCLE('',#832,0.800000000000001);
#301=CIRCLE('',#835,0.8);
#302=VERTEX_POINT('',#1060);
#303=VERTEX_POINT('',#1061);
#304=VERTEX_POINT('',#1063);
#305=VERTEX_POINT('',#1065);
#306=VERTEX_POINT('',#1069);
#307=VERTEX_POINT('',#1071);
#308=VERTEX_POINT('',#1075);
#309=VERTEX_POINT('',#1077);
#310=VERTEX_POINT('',#1081);
#311=VERTEX_POINT('',#1082);
#312=VERTEX_POINT('',#1084);
#313=VERTEX_POINT('',#1086);
#314=VERTEX_POINT('',#1090);
#315=VERTEX_POINT('',#1092);
#316=VERTEX_POINT('',#1096);
#317=VERTEX_POINT('',#1098);
#318=VERTEX_POINT('',#1102);
#319=VERTEX_POINT('',#1103);
#320=VERTEX_POINT('',#1105);
#321=VERTEX_POINT('',#1107);
#322=VERTEX_POINT('',#1111);
#323=VERTEX_POINT('',#1113);
#324=VERTEX_POINT('',#1117);
#325=VERTEX_POINT('',#1119);
#326=VERTEX_POINT('',#1123);
#327=VERTEX_POINT('',#1124);
#328=VERTEX_POINT('',#1126);
#329=VERTEX_POINT('',#1128);
#330=VERTEX_POINT('',#1132);
#331=VERTEX_POINT('',#1134);
#332=VERTEX_POINT('',#1138);
#333=VERTEX_POINT('',#1140);
#334=VERTEX_POINT('',#1144);
#335=VERTEX_POINT('',#1145);
#336=VERTEX_POINT('',#1147);
#337=VERTEX_POINT('',#1149);
#338=VERTEX_POINT('',#1153);
#339=VERTEX_POINT('',#1155);
#340=VERTEX_POINT('',#1159);
#341=VERTEX_POINT('',#1160);
#342=VERTEX_POINT('',#1162);
#343=VERTEX_POINT('',#1164);
#344=VERTEX_POINT('',#1168);
#345=VERTEX_POINT('',#1170);
#346=VERTEX_POINT('',#1174);
#347=VERTEX_POINT('',#1176);
#348=VERTEX_POINT('',#1180);
#349=VERTEX_POINT('',#1182);
#350=VERTEX_POINT('',#1186);
#351=VERTEX_POINT('',#1188);
#352=VERTEX_POINT('',#1198);
#353=VERTEX_POINT('',#1199);
#354=VERTEX_POINT('',#1201);
#355=VERTEX_POINT('',#1203);
#356=VERTEX_POINT('',#1205);
#357=VERTEX_POINT('',#1207);
#358=VERTEX_POINT('',#1209);
#359=VERTEX_POINT('',#1211);
#360=VERTEX_POINT('',#1215);
#361=VERTEX_POINT('',#1217);
#362=VERTEX_POINT('',#1220);
#363=VERTEX_POINT('',#1225);
#364=VERTEX_POINT('',#1231);
#365=VERTEX_POINT('',#1237);
#366=VERTEX_POINT('',#1245);
#367=VERTEX_POINT('',#1247);
#368=VERTEX_POINT('',#1251);
#369=VERTEX_POINT('',#1255);
#370=VERTEX_POINT('',#1259);
#371=VERTEX_POINT('',#1263);
#372=VERTEX_POINT('',#1267);
#373=VERTEX_POINT('',#1271);
#374=EDGE_CURVE('',#302,#303,#270,.T.);
#375=EDGE_CURVE('',#304,#302,#118,.T.);
#376=EDGE_CURVE('',#304,#305,#271,.T.);
#377=EDGE_CURVE('',#305,#303,#119,.T.);
#378=EDGE_CURVE('',#306,#305,#120,.T.);
#379=EDGE_CURVE('',#307,#306,#121,.T.);
#380=EDGE_CURVE('',#307,#303,#122,.T.);
#381=EDGE_CURVE('',#307,#308,#272,.T.);
#382=EDGE_CURVE('',#306,#309,#273,.T.);
#383=EDGE_CURVE('',#308,#309,#123,.T.);
#384=EDGE_CURVE('',#310,#311,#274,.T.);
#385=EDGE_CURVE('',#312,#310,#124,.T.);
#386=EDGE_CURVE('',#312,#313,#275,.T.);
#387=EDGE_CURVE('',#313,#311,#125,.T.);
#388=EDGE_CURVE('',#314,#313,#126,.T.);
#389=EDGE_CURVE('',#315,#314,#127,.T.);
#390=EDGE_CURVE('',#315,#311,#128,.T.);
#391=EDGE_CURVE('',#315,#316,#276,.T.);
#392=EDGE_CURVE('',#314,#317,#277,.T.);
#393=EDGE_CURVE('',#316,#317,#129,.T.);
#394=EDGE_CURVE('',#318,#319,#278,.T.);
#395=EDGE_CURVE('',#320,#318,#130,.T.);
#396=EDGE_CURVE('',#320,#321,#279,.T.);
#397=EDGE_CURVE('',#321,#319,#131,.T.);
#398=EDGE_CURVE('',#322,#321,#132,.T.);
#399=EDGE_CURVE('',#323,#322,#133,.T.);
#400=EDGE_CURVE('',#323,#319,#134,.T.);
#401=EDGE_CURVE('',#323,#324,#280,.T.);
#402=EDGE_CURVE('',#322,#325,#281,.T.);
#403=EDGE_CURVE('',#324,#325,#135,.T.);
#404=EDGE_CURVE('',#326,#327,#282,.T.);
#405=EDGE_CURVE('',#328,#326,#136,.T.);
#406=EDGE_CURVE('',#328,#329,#283,.T.);
#407=EDGE_CURVE('',#329,#327,#137,.T.);
#408=EDGE_CURVE('',#330,#329,#138,.T.);
#409=EDGE_CURVE('',#331,#330,#139,.T.);
#410=EDGE_CURVE('',#331,#327,#140,.T.);
#411=EDGE_CURVE('',#331,#332,#284,.T.);
#412=EDGE_CURVE('',#330,#333,#285,.T.);
#413=EDGE_CURVE('',#332,#333,#141,.T.);
#414=EDGE_CURVE('',#334,#335,#286,.T.);
#415=EDGE_CURVE('',#336,#334,#142,.T.);
#416=EDGE_CURVE('',#336,#337,#287,.T.);
#417=EDGE_CURVE('',#337,#335,#143,.T.);
#418=EDGE_CURVE('',#338,#337,#144,.T.);
#419=EDGE_CURVE('',#339,#338,#145,.T.);
#420=EDGE_CURVE('',#339,#335,#146,.T.);
#421=EDGE_CURVE('',#340,#341,#288,.T.);
#422=EDGE_CURVE('',#342,#340,#147,.T.);
#423=EDGE_CURVE('',#342,#343,#289,.T.);
#424=EDGE_CURVE('',#343,#341,#148,.T.);
#425=EDGE_CURVE('',#344,#343,#149,.T.);
#426=EDGE_CURVE('',#345,#344,#150,.T.);
#427=EDGE_CURVE('',#345,#341,#151,.T.);
#428=EDGE_CURVE('',#345,#346,#290,.T.);
#429=EDGE_CURVE('',#344,#347,#291,.T.);
#430=EDGE_CURVE('',#346,#347,#152,.T.);
#431=EDGE_CURVE('',#339,#348,#292,.T.);
#432=EDGE_CURVE('',#338,#349,#293,.T.);
#433=EDGE_CURVE('',#348,#349,#153,.T.);
#434=EDGE_CURVE('',#350,#334,#154,.T.);
#435=EDGE_CURVE('',#350,#351,#155,.T.);
#436=EDGE_CURVE('',#336,#351,#156,.T.);
#437=EDGE_CURVE('',#308,#340,#157,.T.);
#438=EDGE_CURVE('',#342,#309,#158,.T.);
#439=EDGE_CURVE('',#304,#349,#159,.T.);
#440=EDGE_CURVE('',#348,#302,#160,.T.);
#441=EDGE_CURVE('',#352,#353,#294,.T.);
#442=EDGE_CURVE('',#353,#354,#161,.T.);
#443=EDGE_CURVE('',#354,#355,#295,.T.);
#444=EDGE_CURVE('',#355,#356,#162,.T.);
#445=EDGE_CURVE('',#356,#357,#296,.T.);
#446=EDGE_CURVE('',#357,#358,#163,.T.);
#447=EDGE_CURVE('',#358,#359,#297,.T.);
#448=EDGE_CURVE('',#359,#352,#164,.T.);
#449=EDGE_CURVE('',#312,#325,#165,.T.);
#450=EDGE_CURVE('',#320,#360,#166,.T.);
#451=EDGE_CURVE('',#360,#361,#167,.T.);
#452=EDGE_CURVE('',#361,#347,#168,.T.);
#453=EDGE_CURVE('',#351,#362,#169,.T.);
#454=EDGE_CURVE('',#362,#333,#170,.T.);
#455=EDGE_CURVE('',#328,#317,#171,.T.);
#456=EDGE_CURVE('',#363,#362,#172,.T.);
#457=EDGE_CURVE('',#332,#363,#173,.T.);
#458=EDGE_CURVE('',#324,#310,#174,.T.);
#459=EDGE_CURVE('',#364,#318,#175,.T.);
#460=EDGE_CURVE('',#364,#360,#176,.T.);
#461=EDGE_CURVE('',#363,#350,#177,.T.);
#462=EDGE_CURVE('',#365,#361,#178,.T.);
#463=EDGE_CURVE('',#346,#365,#179,.T.);
#464=EDGE_CURVE('',#365,#364,#180,.T.);
#465=EDGE_CURVE('',#316,#326,#181,.T.);
#466=EDGE_CURVE('',#366,#353,#182,.T.);
#467=EDGE_CURVE('',#367,#366,#183,.T.);
#468=EDGE_CURVE('',#354,#367,#184,.T.);
#469=EDGE_CURVE('',#368,#367,#298,.T.);
#470=EDGE_CURVE('',#355,#368,#185,.T.);
#471=EDGE_CURVE('',#369,#368,#186,.T.);
#472=EDGE_CURVE('',#356,#369,#187,.T.);
#473=EDGE_CURVE('',#370,#369,#299,.T.);
#474=EDGE_CURVE('',#357,#370,#188,.T.);
#475=EDGE_CURVE('',#371,#370,#189,.T.);
#476=EDGE_CURVE('',#358,#371,#190,.T.);
#477=EDGE_CURVE('',#372,#371,#300,.T.);
#478=EDGE_CURVE('',#359,#372,#191,.T.);
#479=EDGE_CURVE('',#373,#372,#192,.T.);
#480=EDGE_CURVE('',#352,#373,#193,.T.);
#481=EDGE_CURVE('',#366,#373,#301,.T.);
#482=ORIENTED_EDGE('',*,*,#374,.F.);
#483=ORIENTED_EDGE('',*,*,#375,.F.);
#484=ORIENTED_EDGE('',*,*,#376,.T.);
#485=ORIENTED_EDGE('',*,*,#377,.T.);
#486=ORIENTED_EDGE('',*,*,#377,.F.);
#487=ORIENTED_EDGE('',*,*,#378,.F.);
#488=ORIENTED_EDGE('',*,*,#379,.F.);
#489=ORIENTED_EDGE('',*,*,#380,.T.);
#490=ORIENTED_EDGE('',*,*,#381,.F.);
#491=ORIENTED_EDGE('',*,*,#379,.T.);
#492=ORIENTED_EDGE('',*,*,#382,.T.);
#493=ORIENTED_EDGE('',*,*,#383,.F.);
#494=ORIENTED_EDGE('',*,*,#384,.F.);
#495=ORIENTED_EDGE('',*,*,#385,.F.);
#496=ORIENTED_EDGE('',*,*,#386,.T.);
#497=ORIENTED_EDGE('',*,*,#387,.T.);
#498=ORIENTED_EDGE('',*,*,#387,.F.);
#499=ORIENTED_EDGE('',*,*,#388,.F.);
#500=ORIENTED_EDGE('',*,*,#389,.F.);
#501=ORIENTED_EDGE('',*,*,#390,.T.);
#502=ORIENTED_EDGE('',*,*,#391,.F.);
#503=ORIENTED_EDGE('',*,*,#389,.T.);
#504=ORIENTED_EDGE('',*,*,#392,.T.);
#505=ORIENTED_EDGE('',*,*,#393,.F.);
#506=ORIENTED_EDGE('',*,*,#394,.F.);
#507=ORIENTED_EDGE('',*,*,#395,.F.);
#508=ORIENTED_EDGE('',*,*,#396,.T.);
#509=ORIENTED_EDGE('',*,*,#397,.T.);
#510=ORIENTED_EDGE('',*,*,#397,.F.);
#511=ORIENTED_EDGE('',*,*,#398,.F.);
#512=ORIENTED_EDGE('',*,*,#399,.F.);
#513=ORIENTED_EDGE('',*,*,#400,.T.);
#514=ORIENTED_EDGE('',*,*,#401,.F.);
#515=ORIENTED_EDGE('',*,*,#399,.T.);
#516=ORIENTED_EDGE('',*,*,#402,.T.);
#517=ORIENTED_EDGE('',*,*,#403,.F.);
#518=ORIENTED_EDGE('',*,*,#404,.F.);
#519=ORIENTED_EDGE('',*,*,#405,.F.);
#520=ORIENTED_EDGE('',*,*,#406,.T.);
#521=ORIENTED_EDGE('',*,*,#407,.T.);
#522=ORIENTED_EDGE('',*,*,#407,.F.);
#523=ORIENTED_EDGE('',*,*,#408,.F.);
#524=ORIENTED_EDGE('',*,*,#409,.F.);
#525=ORIENTED_EDGE('',*,*,#410,.T.);
#526=ORIENTED_EDGE('',*,*,#411,.F.);
#527=ORIENTED_EDGE('',*,*,#409,.T.);
#528=ORIENTED_EDGE('',*,*,#412,.T.);
#529=ORIENTED_EDGE('',*,*,#413,.F.);
#530=ORIENTED_EDGE('',*,*,#414,.F.);
#531=ORIENTED_EDGE('',*,*,#415,.F.);
#532=ORIENTED_EDGE('',*,*,#416,.T.);
#533=ORIENTED_EDGE('',*,*,#417,.T.);
#534=ORIENTED_EDGE('',*,*,#417,.F.);
#535=ORIENTED_EDGE('',*,*,#418,.F.);
#536=ORIENTED_EDGE('',*,*,#419,.F.);
#537=ORIENTED_EDGE('',*,*,#420,.T.);
#538=ORIENTED_EDGE('',*,*,#421,.F.);
#539=ORIENTED_EDGE('',*,*,#422,.F.);
#540=ORIENTED_EDGE('',*,*,#423,.T.);
#541=ORIENTED_EDGE('',*,*,#424,.T.);
#542=ORIENTED_EDGE('',*,*,#424,.F.);
#543=ORIENTED_EDGE('',*,*,#425,.F.);
#544=ORIENTED_EDGE('',*,*,#426,.F.);
#545=ORIENTED_EDGE('',*,*,#427,.T.);
#546=ORIENTED_EDGE('',*,*,#428,.F.);
#547=ORIENTED_EDGE('',*,*,#426,.T.);
#548=ORIENTED_EDGE('',*,*,#429,.T.);
#549=ORIENTED_EDGE('',*,*,#430,.F.);
#550=ORIENTED_EDGE('',*,*,#431,.F.);
#551=ORIENTED_EDGE('',*,*,#419,.T.);
#552=ORIENTED_EDGE('',*,*,#432,.T.);
#553=ORIENTED_EDGE('',*,*,#433,.F.);
#554=ORIENTED_EDGE('',*,*,#415,.T.);
#555=ORIENTED_EDGE('',*,*,#434,.F.);
#556=ORIENTED_EDGE('',*,*,#435,.T.);
#557=ORIENTED_EDGE('',*,*,#436,.F.);
#558=ORIENTED_EDGE('',*,*,#422,.T.);
#559=ORIENTED_EDGE('',*,*,#437,.F.);
#560=ORIENTED_EDGE('',*,*,#383,.T.);
#561=ORIENTED_EDGE('',*,*,#438,.F.);
#562=ORIENTED_EDGE('',*,*,#433,.T.);
#563=ORIENTED_EDGE('',*,*,#439,.F.);
#564=ORIENTED_EDGE('',*,*,#375,.T.);
#565=ORIENTED_EDGE('',*,*,#440,.F.);
#566=ORIENTED_EDGE('',*,*,#441,.T.);
#567=ORIENTED_EDGE('',*,*,#442,.T.);
#568=ORIENTED_EDGE('',*,*,#443,.T.);
#569=ORIENTED_EDGE('',*,*,#444,.T.);
#570=ORIENTED_EDGE('',*,*,#445,.T.);
#571=ORIENTED_EDGE('',*,*,#446,.T.);
#572=ORIENTED_EDGE('',*,*,#447,.T.);
#573=ORIENTED_EDGE('',*,*,#448,.T.);
#574=ORIENTED_EDGE('',*,*,#392,.F.);
#575=ORIENTED_EDGE('',*,*,#388,.T.);
#576=ORIENTED_EDGE('',*,*,#386,.F.);
#577=ORIENTED_EDGE('',*,*,#449,.T.);
#578=ORIENTED_EDGE('',*,*,#402,.F.);
#579=ORIENTED_EDGE('',*,*,#398,.T.);
#580=ORIENTED_EDGE('',*,*,#396,.F.);
#581=ORIENTED_EDGE('',*,*,#450,.T.);
#582=ORIENTED_EDGE('',*,*,#451,.T.);
#583=ORIENTED_EDGE('',*,*,#452,.T.);
#584=ORIENTED_EDGE('',*,*,#429,.F.);
#585=ORIENTED_EDGE('',*,*,#425,.T.);
#586=ORIENTED_EDGE('',*,*,#423,.F.);
#587=ORIENTED_EDGE('',*,*,#438,.T.);
#588=ORIENTED_EDGE('',*,*,#382,.F.);
#589=ORIENTED_EDGE('',*,*,#378,.T.);
#590=ORIENTED_EDGE('',*,*,#376,.F.);
#591=ORIENTED_EDGE('',*,*,#439,.T.);
#592=ORIENTED_EDGE('',*,*,#432,.F.);
#593=ORIENTED_EDGE('',*,*,#418,.T.);
#594=ORIENTED_EDGE('',*,*,#416,.F.);
#595=ORIENTED_EDGE('',*,*,#436,.T.);
#596=ORIENTED_EDGE('',*,*,#453,.T.);
#597=ORIENTED_EDGE('',*,*,#454,.T.);
#598=ORIENTED_EDGE('',*,*,#412,.F.);
#599=ORIENTED_EDGE('',*,*,#408,.T.);
#600=ORIENTED_EDGE('',*,*,#406,.F.);
#601=ORIENTED_EDGE('',*,*,#455,.T.);
#602=ORIENTED_EDGE('',*,*,#413,.T.);
#603=ORIENTED_EDGE('',*,*,#454,.F.);
#604=ORIENTED_EDGE('',*,*,#456,.F.);
#605=ORIENTED_EDGE('',*,*,#457,.F.);
#606=ORIENTED_EDGE('',*,*,#385,.T.);
#607=ORIENTED_EDGE('',*,*,#458,.F.);
#608=ORIENTED_EDGE('',*,*,#403,.T.);
#609=ORIENTED_EDGE('',*,*,#449,.F.);
#610=ORIENTED_EDGE('',*,*,#395,.T.);
#611=ORIENTED_EDGE('',*,*,#459,.F.);
#612=ORIENTED_EDGE('',*,*,#460,.T.);
#613=ORIENTED_EDGE('',*,*,#450,.F.);
#614=ORIENTED_EDGE('',*,*,#461,.F.);
#615=ORIENTED_EDGE('',*,*,#456,.T.);
#616=ORIENTED_EDGE('',*,*,#453,.F.);
#617=ORIENTED_EDGE('',*,*,#435,.F.);
#618=ORIENTED_EDGE('',*,*,#430,.T.);
#619=ORIENTED_EDGE('',*,*,#452,.F.);
#620=ORIENTED_EDGE('',*,*,#462,.F.);
#621=ORIENTED_EDGE('',*,*,#463,.F.);
#622=ORIENTED_EDGE('',*,*,#464,.F.);
#623=ORIENTED_EDGE('',*,*,#462,.T.);
#624=ORIENTED_EDGE('',*,*,#451,.F.);
#625=ORIENTED_EDGE('',*,*,#460,.F.);
#626=ORIENTED_EDGE('',*,*,#393,.T.);
#627=ORIENTED_EDGE('',*,*,#455,.F.);
#628=ORIENTED_EDGE('',*,*,#405,.T.);
#629=ORIENTED_EDGE('',*,*,#465,.F.);
#630=ORIENTED_EDGE('',*,*,#466,.F.);
#631=ORIENTED_EDGE('',*,*,#467,.F.);
#632=ORIENTED_EDGE('',*,*,#468,.F.);
#633=ORIENTED_EDGE('',*,*,#442,.F.);
#634=ORIENTED_EDGE('',*,*,#468,.T.);
#635=ORIENTED_EDGE('',*,*,#469,.F.);
#636=ORIENTED_EDGE('',*,*,#470,.F.);
#637=ORIENTED_EDGE('',*,*,#443,.F.);
#638=ORIENTED_EDGE('',*,*,#470,.T.);
#639=ORIENTED_EDGE('',*,*,#471,.F.);
#640=ORIENTED_EDGE('',*,*,#472,.F.);
#641=ORIENTED_EDGE('',*,*,#444,.F.);
#642=ORIENTED_EDGE('',*,*,#472,.T.);
#643=ORIENTED_EDGE('',*,*,#473,.F.);
#644=ORIENTED_EDGE('',*,*,#474,.F.);
#645=ORIENTED_EDGE('',*,*,#445,.F.);
#646=ORIENTED_EDGE('',*,*,#474,.T.);
#647=ORIENTED_EDGE('',*,*,#475,.F.);
#648=ORIENTED_EDGE('',*,*,#476,.F.);
#649=ORIENTED_EDGE('',*,*,#446,.F.);
#650=ORIENTED_EDGE('',*,*,#476,.T.);
#651=ORIENTED_EDGE('',*,*,#477,.F.);
#652=ORIENTED_EDGE('',*,*,#478,.F.);
#653=ORIENTED_EDGE('',*,*,#447,.F.);
#654=ORIENTED_EDGE('',*,*,#478,.T.);
#655=ORIENTED_EDGE('',*,*,#479,.F.);
#656=ORIENTED_EDGE('',*,*,#480,.F.);
#657=ORIENTED_EDGE('',*,*,#448,.F.);
#658=ORIENTED_EDGE('',*,*,#480,.T.);
#659=ORIENTED_EDGE('',*,*,#481,.F.);
#660=ORIENTED_EDGE('',*,*,#466,.T.);
#661=ORIENTED_EDGE('',*,*,#441,.F.);
#662=ORIENTED_EDGE('',*,*,#481,.T.);
#663=ORIENTED_EDGE('',*,*,#479,.T.);
#664=ORIENTED_EDGE('',*,*,#477,.T.);
#665=ORIENTED_EDGE('',*,*,#475,.T.);
#666=ORIENTED_EDGE('',*,*,#473,.T.);
#667=ORIENTED_EDGE('',*,*,#471,.T.);
#668=ORIENTED_EDGE('',*,*,#469,.T.);
#669=ORIENTED_EDGE('',*,*,#467,.T.);
#670=ORIENTED_EDGE('',*,*,#374,.T.);
#671=ORIENTED_EDGE('',*,*,#380,.F.);
#672=ORIENTED_EDGE('',*,*,#381,.T.);
#673=ORIENTED_EDGE('',*,*,#437,.T.);
#674=ORIENTED_EDGE('',*,*,#421,.T.);
#675=ORIENTED_EDGE('',*,*,#427,.F.);
#676=ORIENTED_EDGE('',*,*,#428,.T.);
#677=ORIENTED_EDGE('',*,*,#463,.T.);
#678=ORIENTED_EDGE('',*,*,#464,.T.);
#679=ORIENTED_EDGE('',*,*,#459,.T.);
#680=ORIENTED_EDGE('',*,*,#394,.T.);
#681=ORIENTED_EDGE('',*,*,#400,.F.);
#682=ORIENTED_EDGE('',*,*,#401,.T.);
#683=ORIENTED_EDGE('',*,*,#458,.T.);
#684=ORIENTED_EDGE('',*,*,#384,.T.);
#685=ORIENTED_EDGE('',*,*,#390,.F.);
#686=ORIENTED_EDGE('',*,*,#391,.T.);
#687=ORIENTED_EDGE('',*,*,#465,.T.);
#688=ORIENTED_EDGE('',*,*,#404,.T.);
#689=ORIENTED_EDGE('',*,*,#410,.F.);
#690=ORIENTED_EDGE('',*,*,#411,.T.);
#691=ORIENTED_EDGE('',*,*,#457,.T.);
#692=ORIENTED_EDGE('',*,*,#461,.T.);
#693=ORIENTED_EDGE('',*,*,#434,.T.);
#694=ORIENTED_EDGE('',*,*,#414,.T.);
#695=ORIENTED_EDGE('',*,*,#420,.F.);
#696=ORIENTED_EDGE('',*,*,#431,.T.);
#697=ORIENTED_EDGE('',*,*,#440,.T.);
#698=CYLINDRICAL_SURFACE('',#767,1.);
#699=CYLINDRICAL_SURFACE('',#771,1.);
#700=CYLINDRICAL_SURFACE('',#774,1.);
#701=CYLINDRICAL_SURFACE('',#778,1.);
#702=CYLINDRICAL_SURFACE('',#781,1.);
#703=CYLINDRICAL_SURFACE('',#785,1.);
#704=CYLINDRICAL_SURFACE('',#788,1.);
#705=CYLINDRICAL_SURFACE('',#792,1.);
#706=CYLINDRICAL_SURFACE('',#795,1.);
#707=CYLINDRICAL_SURFACE('',#799,1.);
#708=CYLINDRICAL_SURFACE('',#803,1.);
#709=CYLINDRICAL_SURFACE('',#806,1.);
#710=CYLINDRICAL_SURFACE('',#825,0.8);
#711=CYLINDRICAL_SURFACE('',#828,0.8);
#712=CYLINDRICAL_SURFACE('',#831,0.800000000000001);
#713=CYLINDRICAL_SURFACE('',#834,0.8);
#714=ADVANCED_FACE('',(#39),#698,.F.);
#715=ADVANCED_FACE('',(#40),#16,.F.);
#716=ADVANCED_FACE('',(#41),#699,.F.);
#717=ADVANCED_FACE('',(#42),#700,.F.);
#718=ADVANCED_FACE('',(#43),#17,.F.);
#719=ADVANCED_FACE('',(#44),#701,.F.);
#720=ADVANCED_FACE('',(#45),#702,.F.);
#721=ADVANCED_FACE('',(#46),#18,.F.);
#722=ADVANCED_FACE('',(#47),#703,.F.);
#723=ADVANCED_FACE('',(#48),#704,.F.);
#724=ADVANCED_FACE('',(#49),#19,.F.);
#725=ADVANCED_FACE('',(#50),#705,.F.);
#726=ADVANCED_FACE('',(#51),#706,.F.);
#727=ADVANCED_FACE('',(#52),#20,.F.);
#728=ADVANCED_FACE('',(#53),#707,.F.);
#729=ADVANCED_FACE('',(#54),#21,.F.);
#730=ADVANCED_FACE('',(#55),#708,.F.);
#731=ADVANCED_FACE('',(#56),#709,.F.);
#732=ADVANCED_FACE('',(#57),#22,.T.);
#733=ADVANCED_FACE('',(#58),#23,.T.);
#734=ADVANCED_FACE('',(#59),#24,.T.);
#735=ADVANCED_FACE('',(#60,#15),#25,.F.);
#736=ADVANCED_FACE('',(#61),#26,.T.);
#737=ADVANCED_FACE('',(#62),#27,.T.);
#738=ADVANCED_FACE('',(#63),#28,.T.);
#739=ADVANCED_FACE('',(#64),#29,.T.);
#740=ADVANCED_FACE('',(#65),#30,.T.);
#741=ADVANCED_FACE('',(#66),#31,.T.);
#742=ADVANCED_FACE('',(#67),#32,.T.);
#743=ADVANCED_FACE('',(#68),#33,.T.);
#744=ADVANCED_FACE('',(#69),#710,.T.);
#745=ADVANCED_FACE('',(#70),#34,.T.);
#746=ADVANCED_FACE('',(#71),#711,.T.);
#747=ADVANCED_FACE('',(#72),#35,.T.);
#748=ADVANCED_FACE('',(#73),#712,.T.);
#749=ADVANCED_FACE('',(#74),#36,.T.);
#750=ADVANCED_FACE('',(#75),#713,.T.);
#751=ADVANCED_FACE('',(#76),#37,.T.);
#752=ADVANCED_FACE('',(#77),#38,.F.);
#753=CLOSED_SHELL('',(#714,#715,#716,#717,#718,#719,#720,#721,#722,#723,
#724,#725,#726,#727,#728,#729,#730,#731,#732,#733,#734,#735,#736,#737,#738,
#739,#740,#741,#742,#743,#744,#745,#746,#747,#748,#749,#750,#751,#752));
#754=DERIVED_UNIT_ELEMENT(#756,1.);
#755=DERIVED_UNIT_ELEMENT(#1283,-3.);
#756=(
MASS_UNIT()
NAMED_UNIT(*)
SI_UNIT(.KILO.,.GRAM.)
);
#757=DERIVED_UNIT((#754,#755));
#758=MEASURE_REPRESENTATION_ITEM('density measure',
POSITIVE_RATIO_MEASURE(952.),#757);
#759=PROPERTY_DEFINITION_REPRESENTATION(#764,#761);
#760=PROPERTY_DEFINITION_REPRESENTATION(#765,#762);
#761=REPRESENTATION('material name',(#763),#1280);
#762=REPRESENTATION('density',(#758),#1280);
#763=DESCRIPTIVE_REPRESENTATION_ITEM('Plastic, Opaque White',
'Plastic, Opaque White');
#764=PROPERTY_DEFINITION('material property','material name',#1290);
#765=PROPERTY_DEFINITION('material property','density of part',#1290);
#766=AXIS2_PLACEMENT_3D('',#1058,#838,#839);
#767=AXIS2_PLACEMENT_3D('',#1059,#840,#841);
#768=AXIS2_PLACEMENT_3D('',#1062,#842,#843);
#769=AXIS2_PLACEMENT_3D('',#1066,#845,#846);
#770=AXIS2_PLACEMENT_3D('',#1068,#848,#849);
#771=AXIS2_PLACEMENT_3D('',#1074,#853,#854);
#772=AXIS2_PLACEMENT_3D('',#1076,#855,#856);
#773=AXIS2_PLACEMENT_3D('',#1078,#857,#858);
#774=AXIS2_PLACEMENT_3D('',#1080,#860,#861);
#775=AXIS2_PLACEMENT_3D('',#1083,#862,#863);
#776=AXIS2_PLACEMENT_3D('',#1087,#865,#866);
#777=AXIS2_PLACEMENT_3D('',#1089,#868,#869);
#778=AXIS2_PLACEMENT_3D('',#1095,#873,#874);
#779=AXIS2_PLACEMENT_3D('',#1097,#875,#876);
#780=AXIS2_PLACEMENT_3D('',#1099,#877,#878);
#781=AXIS2_PLACEMENT_3D('',#1101,#880,#881);
#782=AXIS2_PLACEMENT_3D('',#1104,#882,#883);
#783=AXIS2_PLACEMENT_3D('',#1108,#885,#886);
#784=AXIS2_PLACEMENT_3D('',#1110,#888,#889);
#785=AXIS2_PLACEMENT_3D('',#1116,#893,#894);
#786=AXIS2_PLACEMENT_3D('',#1118,#895,#896);
#787=AXIS2_PLACEMENT_3D('',#1120,#897,#898);
#788=AXIS2_PLACEMENT_3D('',#1122,#900,#901);
#789=AXIS2_PLACEMENT_3D('',#1125,#902,#903);
#790=AXIS2_PLACEMENT_3D('',#1129,#905,#906);
#791=AXIS2_PLACEMENT_3D('',#1131,#908,#909);
#792=AXIS2_PLACEMENT_3D('',#1137,#913,#914);
#793=AXIS2_PLACEMENT_3D('',#1139,#915,#916);
#794=AXIS2_PLACEMENT_3D('',#1141,#917,#918);
#795=AXIS2_PLACEMENT_3D('',#1143,#920,#921);
#796=AXIS2_PLACEMENT_3D('',#1146,#922,#923);
#797=AXIS2_PLACEMENT_3D('',#1150,#925,#926);
#798=AXIS2_PLACEMENT_3D('',#1152,#928,#929);
#799=AXIS2_PLACEMENT_3D('',#1158,#933,#934);
#800=AXIS2_PLACEMENT_3D('',#1161,#935,#936);
#801=AXIS2_PLACEMENT_3D('',#1165,#938,#939);
#802=AXIS2_PLACEMENT_3D('',#1167,#941,#942);
#803=AXIS2_PLACEMENT_3D('',#1173,#946,#947);
#804=AXIS2_PLACEMENT_3D('',#1175,#948,#949);
#805=AXIS2_PLACEMENT_3D('',#1177,#950,#951);
#806=AXIS2_PLACEMENT_3D('',#1179,#953,#954);
#807=AXIS2_PLACEMENT_3D('',#1181,#955,#956);
#808=AXIS2_PLACEMENT_3D('',#1183,#957,#958);
#809=AXIS2_PLACEMENT_3D('',#1185,#960,#961);
#810=AXIS2_PLACEMENT_3D('',#1191,#965,#966);
#811=AXIS2_PLACEMENT_3D('',#1194,#969,#970);
#812=AXIS2_PLACEMENT_3D('',#1197,#973,#974);
#813=AXIS2_PLACEMENT_3D('',#1200,#975,#976);
#814=AXIS2_PLACEMENT_3D('',#1204,#978,#979);
#815=AXIS2_PLACEMENT_3D('',#1208,#981,#982);
#816=AXIS2_PLACEMENT_3D('',#1212,#984,#985);
#817=AXIS2_PLACEMENT_3D('',#1224,#994,#995);
#818=AXIS2_PLACEMENT_3D('',#1228,#998,#999);
#819=AXIS2_PLACEMENT_3D('',#1230,#1001,#1002);
#820=AXIS2_PLACEMENT_3D('',#1234,#1005,#1006);
#821=AXIS2_PLACEMENT_3D('',#1236,#1008,#1009);
#822=AXIS2_PLACEMENT_3D('',#1240,#1012,#1013);
#823=AXIS2_PLACEMENT_3D('',#1242,#1015,#1016);
#824=AXIS2_PLACEMENT_3D('',#1244,#1018,#1019);
#825=AXIS2_PLACEMENT_3D('',#1250,#1023,#1024);
#826=AXIS2_PLACEMENT_3D('',#1252,#1025,#1026);
#827=AXIS2_PLACEMENT_3D('',#1254,#1028,#1029);
#828=AXIS2_PLACEMENT_3D('',#1258,#1032,#1033);
#829=AXIS2_PLACEMENT_3D('',#1260,#1034,#1035);
#830=AXIS2_PLACEMENT_3D('',#1262,#1037,#1038);
#831=AXIS2_PLACEMENT_3D('',#1266,#1041,#1042);
#832=AXIS2_PLACEMENT_3D('',#1268,#1043,#1044);
#833=AXIS2_PLACEMENT_3D('',#1270,#1046,#1047);
#834=AXIS2_PLACEMENT_3D('',#1274,#1050,#1051);
#835=AXIS2_PLACEMENT_3D('',#1275,#1052,#1053);
#836=AXIS2_PLACEMENT_3D('',#1276,#1054,#1055);
#837=AXIS2_PLACEMENT_3D('',#1277,#1056,#1057);
#838=DIRECTION('axis',(0.,0.,1.));
#839=DIRECTION('refdir',(1.,0.,0.));
#840=DIRECTION('center_axis',(0.,1.,0.));
#841=DIRECTION('ref_axis',(-0.707106781186549,0.,-0.707106781186546));
#842=DIRECTION('center_axis',(0.,-1.,0.));
#843=DIRECTION('ref_axis',(-0.707106781186549,0.,-0.707106781186546));
#844=DIRECTION('',(0.,1.,0.));
#845=DIRECTION('center_axis',(0.,-1.,0.));
#846=DIRECTION('ref_axis',(-0.707106781186549,0.,-0.707106781186546));
#847=DIRECTION('',(0.,1.,0.));
#848=DIRECTION('center_axis',(0.,0.,-1.));
#849=DIRECTION('ref_axis',(-1.,0.,0.));
#850=DIRECTION('',(-1.,0.,0.));
#851=DIRECTION('',(0.,-1.,0.));
#852=DIRECTION('',(-1.,0.,0.));
#853=DIRECTION('center_axis',(0.,1.,0.));
#854=DIRECTION('ref_axis',(0.707106781186546,0.,-0.707106781186549));
#855=DIRECTION('center_axis',(0.,-1.,0.));
#856=DIRECTION('ref_axis',(0.707106781186546,0.,-0.707106781186549));
#857=DIRECTION('center_axis',(0.,-1.,0.));
#858=DIRECTION('ref_axis',(0.707106781186546,0.,-0.707106781186549));
#859=DIRECTION('',(0.,-1.,0.));
#860=DIRECTION('center_axis',(0.,1.,0.));
#861=DIRECTION('ref_axis',(0.707106781186546,0.,0.707106781186549));
#862=DIRECTION('center_axis',(0.,-1.,0.));
#863=DIRECTION('ref_axis',(0.707106781186546,0.,0.707106781186549));
#864=DIRECTION('',(0.,1.,0.));
#865=DIRECTION('center_axis',(0.,-1.,0.));
#866=DIRECTION('ref_axis',(0.707106781186546,0.,0.707106781186549));
#867=DIRECTION('',(0.,1.,0.));
#868=DIRECTION('center_axis',(2.52323414687536E-16,0.,1.));
#869=DIRECTION('ref_axis',(1.,0.,-2.52323414687536E-16));
#870=DIRECTION('',(1.,0.,-2.52323414687536E-16));
#871=DIRECTION('',(0.,-1.,0.));
#872=DIRECTION('',(1.,0.,-2.52323414687536E-16));
#873=DIRECTION('center_axis',(0.,1.,0.));
#874=DIRECTION('ref_axis',(-0.707106781186548,0.,0.707106781186547));
#875=DIRECTION('center_axis',(0.,-1.,0.));
#876=DIRECTION('ref_axis',(-0.707106781186548,0.,0.707106781186547));
#877=DIRECTION('center_axis',(0.,-1.,0.));
#878=DIRECTION('ref_axis',(-0.707106781186548,0.,0.707106781186547));
#879=DIRECTION('',(0.,-1.,0.));
#880=DIRECTION('center_axis',(0.,1.,0.));
#881=DIRECTION('ref_axis',(0.707106781186546,0.,0.707106781186549));
#882=DIRECTION('center_axis',(0.,-1.,0.));
#883=DIRECTION('ref_axis',(0.707106781186546,0.,0.707106781186549));
#884=DIRECTION('',(0.,1.,0.));
#885=DIRECTION('center_axis',(0.,-1.,0.));
#886=DIRECTION('ref_axis',(0.707106781186546,0.,0.707106781186549));
#887=DIRECTION('',(0.,1.,0.));
#888=DIRECTION('center_axis',(0.,0.,1.));
#889=DIRECTION('ref_axis',(1.,0.,0.));
#890=DIRECTION('',(1.,0.,0.));
#891=DIRECTION('',(0.,-1.,0.));
#892=DIRECTION('',(1.,0.,0.));
#893=DIRECTION('center_axis',(0.,1.,0.));
#894=DIRECTION('ref_axis',(-0.707106781186549,0.,0.707106781186546));
#895=DIRECTION('center_axis',(0.,-1.,0.));
#896=DIRECTION('ref_axis',(-0.707106781186549,0.,0.707106781186546));
#897=DIRECTION('center_axis',(0.,-1.,0.));
#898=DIRECTION('ref_axis',(-0.707106781186549,0.,0.707106781186546));
#899=DIRECTION('',(0.,-1.,0.));
#900=DIRECTION('center_axis',(0.,1.,0.));
#901=DIRECTION('ref_axis',(0.707106781186548,0.,0.707106781186548));
#902=DIRECTION('center_axis',(0.,-1.,0.));
#903=DIRECTION('ref_axis',(0.707106781186548,0.,0.707106781186548));
#904=DIRECTION('',(0.,1.,0.));
#905=DIRECTION('center_axis',(0.,-1.,0.));
#906=DIRECTION('ref_axis',(0.707106781186548,0.,0.707106781186548));
#907=DIRECTION('',(0.,1.,0.));
#908=DIRECTION('center_axis',(0.,0.,1.));
#909=DIRECTION('ref_axis',(1.,0.,0.));
#910=DIRECTION('',(1.,0.,0.));
#911=DIRECTION('',(0.,-1.,0.));
#912=DIRECTION('',(1.,0.,0.));
#913=DIRECTION('center_axis',(0.,1.,0.));
#914=DIRECTION('ref_axis',(-0.707106781186548,0.,0.707106781186547));
#915=DIRECTION('center_axis',(0.,-1.,0.));
#916=DIRECTION('ref_axis',(-0.707106781186548,0.,0.707106781186547));
#917=DIRECTION('center_axis',(0.,-1.,0.));
#918=DIRECTION('ref_axis',(-0.707106781186548,0.,0.707106781186547));
#919=DIRECTION('',(0.,-1.,0.));
#920=DIRECTION('center_axis',(0.,1.,0.));
#921=DIRECTION('ref_axis',(-0.707106781186548,0.,-0.707106781186547));
#922=DIRECTION('center_axis',(0.,-1.,0.));
#923=DIRECTION('ref_axis',(-0.707106781186548,0.,-0.707106781186547));
#924=DIRECTION('',(0.,1.,0.));
#925=DIRECTION('center_axis',(0.,-1.,0.));
#926=DIRECTION('ref_axis',(-0.707106781186548,0.,-0.707106781186547));
#927=DIRECTION('',(0.,1.,0.));
#928=DIRECTION('center_axis',(0.,0.,-1.));
#929=DIRECTION('ref_axis',(-1.,0.,0.));
#930=DIRECTION('',(-1.,0.,0.));
#931=DIRECTION('',(0.,-1.,0.));
#932=DIRECTION('',(-1.,0.,0.));
#933=DIRECTION('center_axis',(0.,1.,0.));
#934=DIRECTION('ref_axis',(-0.707106781186546,0.,-0.707106781186549));
#935=DIRECTION('center_axis',(0.,-1.,0.));
#936=DIRECTION('ref_axis',(-0.707106781186546,0.,-0.707106781186549));
#937=DIRECTION('',(0.,1.,0.));
#938=DIRECTION('center_axis',(0.,-1.,0.));
#939=DIRECTION('ref_axis',(-0.707106781186546,0.,-0.707106781186549));
#940=DIRECTION('',(0.,1.,0.));
#941=DIRECTION('center_axis',(0.,0.,-1.));
#942=DIRECTION('ref_axis',(-1.,0.,0.));
#943=DIRECTION('',(-1.,0.,0.));
#944=DIRECTION('',(0.,-1.,0.));
#945=DIRECTION('',(-1.,0.,0.));
#946=DIRECTION('center_axis',(0.,1.,0.));
#947=DIRECTION('ref_axis',(0.707106781186546,0.,-0.707106781186549));
#948=DIRECTION('center_axis',(0.,-1.,0.));
#949=DIRECTION('ref_axis',(0.707106781186546,0.,-0.707106781186549));
#950=DIRECTION('center_axis',(0.,-1.,0.));
#951=DIRECTION('ref_axis',(0.707106781186546,0.,-0.707106781186549));
#952=DIRECTION('',(0.,-1.,0.));
#953=DIRECTION('center_axis',(0.,1.,0.));
#954=DIRECTION('ref_axis',(0.707106781186548,0.,-0.707106781186547));
#955=DIRECTION('center_axis',(0.,-1.,0.));
#956=DIRECTION('ref_axis',(0.707106781186548,0.,-0.707106781186547));
#957=DIRECTION('center_axis',(0.,-1.,0.));
#958=DIRECTION('ref_axis',(0.707106781186548,0.,-0.707106781186547));
#959=DIRECTION('',(0.,-1.,0.));
#960=DIRECTION('center_axis',(4.98499538619981E-33,0.,1.));
#961=DIRECTION('ref_axis',(-1.,0.,4.98499538619981E-33));
#962=DIRECTION('',(1.,0.,-4.98499538619981E-33));
#963=DIRECTION('',(0.,-1.,0.));
#964=DIRECTION('',(-1.,0.,4.98499538619981E-33));
#965=DIRECTION('center_axis',(4.98499538619981E-33,0.,1.));
#966=DIRECTION('ref_axis',(-1.,0.,4.98499538619981E-33));
#967=DIRECTION('',(1.,0.,-4.98499538619981E-33));
#968=DIRECTION('',(-1.,0.,4.98499538619981E-33));
#969=DIRECTION('center_axis',(4.98499538619981E-33,0.,1.));
#970=DIRECTION('ref_axis',(-1.,0.,4.98499538619981E-33));
#971=DIRECTION('',(-1.,0.,4.98499538619981E-33));
#972=DIRECTION('',(1.,0.,-4.98499538619981E-33));
#973=DIRECTION('center_axis',(0.,1.,0.));
#974=DIRECTION('ref_axis',(1.,0.,0.));
#975=DIRECTION('center_axis',(0.,-1.,0.));
#976=DIRECTION('ref_axis',(0.,0.,1.));
#977=DIRECTION('',(-1.,0.,0.));
#978=DIRECTION('center_axis',(0.,-1.,0.));
#979=DIRECTION('ref_axis',(-1.,0.,0.));
#980=DIRECTION('',(-3.00060276925718E-16,0.,-1.));
#981=DIRECTION('center_axis',(0.,-1.,0.));
#982=DIRECTION('ref_axis',(0.,0.,-1.));
#983=DIRECTION('',(1.,0.,0.));
#984=DIRECTION('center_axis',(0.,-1.,0.));
#985=DIRECTION('ref_axis',(1.,0.,0.));
#986=DIRECTION('',(0.,0.,1.));
#987=DIRECTION('',(1.,0.,0.));
#988=DIRECTION('',(1.,0.,0.));
#989=DIRECTION('',(0.,0.,-1.));
#990=DIRECTION('',(-1.,0.,4.98499538619981E-33));
#991=DIRECTION('',(-1.48148457260557E-33,0.,1.));
#992=DIRECTION('',(1.,0.,0.));
#993=DIRECTION('',(1.,0.,0.));
#994=DIRECTION('center_axis',(0.,0.,-1.));
#995=DIRECTION('ref_axis',(1.,0.,0.));
#996=DIRECTION('',(0.,-1.,0.));
#997=DIRECTION('',(-1.,0.,0.));
#998=DIRECTION('center_axis',(0.,0.,-1.));
#999=DIRECTION('ref_axis',(1.,0.,0.));
#1000=DIRECTION('',(-1.,0.,0.));
#1001=DIRECTION('center_axis',(0.,0.,-1.));
#1002=DIRECTION('ref_axis',(1.,0.,0.));
#1003=DIRECTION('',(-1.,0.,0.));
#1004=DIRECTION('',(0.,-1.,0.));
#1005=DIRECTION('center_axis',(1.,0.,1.48148457260557E-33));
#1006=DIRECTION('ref_axis',(-1.48148457260557E-33,0.,1.));
#1007=DIRECTION('',(1.48148457260557E-33,0.,-1.));
#1008=DIRECTION('center_axis',(4.98499538619981E-33,0.,1.));
#1009=DIRECTION('ref_axis',(-1.,0.,4.98499538619981E-33));
#1010=DIRECTION('',(0.,-1.,0.));
#1011=DIRECTION('',(1.,0.,-4.98499538619981E-33));
#1012=DIRECTION('center_axis',(-1.,0.,0.));
#1013=DIRECTION('ref_axis',(0.,0.,-1.));
#1014=DIRECTION('',(0.,0.,1.));
#1015=DIRECTION('center_axis',(0.,0.,-1.));
#1016=DIRECTION('ref_axis',(1.,0.,0.));
#1017=DIRECTION('',(-1.,0.,0.));
#1018=DIRECTION('center_axis',(0.,0.,1.));
#1019=DIRECTION('ref_axis',(1.,0.,0.));
#1020=DIRECTION('',(0.,-1.,0.));
#1021=DIRECTION('',(1.,0.,0.));
#1022=DIRECTION('',(0.,1.,0.));
#1023=DIRECTION('center_axis',(0.,1.,0.));
#1024=DIRECTION('ref_axis',(-1.,0.,0.));
#1025=DIRECTION('center_axis',(0.,1.,0.));
#1026=DIRECTION('ref_axis',(-1.,0.,0.));
#1027=DIRECTION('',(0.,1.,0.));
#1028=DIRECTION('center_axis',(-1.,0.,3.00060276925718E-16));
#1029=DIRECTION('ref_axis',(3.00060276925718E-16,0.,1.));
#1030=DIRECTION('',(3.00060276925718E-16,0.,1.));
#1031=DIRECTION('',(0.,1.,0.));
#1032=DIRECTION('center_axis',(0.,1.,0.));
#1033=DIRECTION('ref_axis',(0.,0.,-1.));
#1034=DIRECTION('center_axis',(0.,1.,0.));
#1035=DIRECTION('ref_axis',(0.,0.,-1.));
#1036=DIRECTION('',(0.,1.,0.));
#1037=DIRECTION('center_axis',(0.,0.,-1.));
#1038=DIRECTION('ref_axis',(-1.,0.,0.));
#1039=DIRECTION('',(-1.,0.,0.));
#1040=DIRECTION('',(0.,1.,0.));
#1041=DIRECTION('center_axis',(0.,1.,0.));
#1042=DIRECTION('ref_axis',(1.,0.,0.));
#1043=DIRECTION('center_axis',(0.,1.,0.));
#1044=DIRECTION('ref_axis',(1.,0.,0.));
#1045=DIRECTION('',(0.,1.,0.));
#1046=DIRECTION('center_axis',(1.,0.,0.));
#1047=DIRECTION('ref_axis',(0.,0.,-1.));
#1048=DIRECTION('',(0.,0.,-1.));
#1049=DIRECTION('',(0.,1.,0.));
#1050=DIRECTION('center_axis',(0.,1.,0.));
#1051=DIRECTION('ref_axis',(0.,0.,1.));
#1052=DIRECTION('center_axis',(0.,1.,0.));
#1053=DIRECTION('ref_axis',(0.,0.,1.));
#1054=DIRECTION('center_axis',(0.,1.,0.));
#1055=DIRECTION('ref_axis',(1.,0.,0.));
#1056=DIRECTION('center_axis',(0.,1.,0.));
#1057=DIRECTION('ref_axis',(1.,0.,0.));
#1058=CARTESIAN_POINT('',(0.,0.,0.));
#1059=CARTESIAN_POINT('Origin',(19.55,-24.,-3.34454686168328E-14));
#1060=CARTESIAN_POINT('',(18.55,0.,0.));
#1061=CARTESIAN_POINT('',(19.55,0.,-1.00000000000003));
#1062=CARTESIAN_POINT('Origin',(19.55,0.,-3.34454686168328E-14));
#1063=CARTESIAN_POINT('',(18.55,-24.,0.));
#1064=CARTESIAN_POINT('',(18.55,-12.,0.));
#1065=CARTESIAN_POINT('',(19.55,-24.,-1.00000000000003));
#1066=CARTESIAN_POINT('Origin',(19.55,-24.,-3.34454686168328E-14));
#1067=CARTESIAN_POINT('',(19.55,-24.,-1.00000000000003));
#1068=CARTESIAN_POINT('Origin',(29.55,-24.,-1.00000000000003));
#1069=CARTESIAN_POINT('',(28.55,-24.,-1.00000000000003));
#1070=CARTESIAN_POINT('',(26.8,-24.,-1.00000000000003));
#1071=CARTESIAN_POINT('',(28.55,0.,-1.00000000000003));
#1072=CARTESIAN_POINT('',(28.55,-24.,-1.00000000000003));
#1073=CARTESIAN_POINT('',(18.55,0.,-1.00000000000003));
#1074=CARTESIAN_POINT('Origin',(28.55,-24.,-3.34454686168328E-14));
#1075=CARTESIAN_POINT('',(29.55,0.,0.));
#1076=CARTESIAN_POINT('Origin',(28.55,0.,-3.34454686168328E-14));
#1077=CARTESIAN_POINT('',(29.55,-24.,0.));
#1078=CARTESIAN_POINT('Origin',(28.55,-24.,-3.34454686168328E-14));
#1079=CARTESIAN_POINT('',(29.55,-12.,-1.47306613662204E-31));
#1080=CARTESIAN_POINT('Origin',(28.55,-24.,1.3));
#1081=CARTESIAN_POINT('',(29.55,0.,1.3));
#1082=CARTESIAN_POINT('',(28.55,0.,2.3));
#1083=CARTESIAN_POINT('Origin',(28.55,0.,1.3));
#1084=CARTESIAN_POINT('',(29.55,-24.,1.3));
#1085=CARTESIAN_POINT('',(29.55,-12.,1.3));
#1086=CARTESIAN_POINT('',(28.55,-24.,2.3));
#1087=CARTESIAN_POINT('Origin',(28.55,-24.,1.3));
#1088=CARTESIAN_POINT('',(28.55,-24.,2.3));
#1089=CARTESIAN_POINT('Origin',(18.55,-24.,2.30000000000001));
#1090=CARTESIAN_POINT('',(19.55,-24.,2.30000000000001));
#1091=CARTESIAN_POINT('',(21.3,-24.,2.30000000000001));
#1092=CARTESIAN_POINT('',(19.55,0.,2.30000000000001));
#1093=CARTESIAN_POINT('',(19.55,-24.,2.30000000000001));
#1094=CARTESIAN_POINT('',(29.55,0.,2.3));
#1095=CARTESIAN_POINT('Origin',(19.55,-24.,1.30000000000001));
#1096=CARTESIAN_POINT('',(18.55,0.,1.3));
#1097=CARTESIAN_POINT('Origin',(19.55,0.,1.30000000000001));
#1098=CARTESIAN_POINT('',(18.55,-24.,1.3));
#1099=CARTESIAN_POINT('Origin',(19.55,-24.,1.30000000000001));
#1100=CARTESIAN_POINT('',(18.55,-12.,1.3));
#1101=CARTESIAN_POINT('Origin',(45.1,-24.,1.3));
#1102=CARTESIAN_POINT('',(46.1,0.,1.3));
#1103=CARTESIAN_POINT('',(45.1,0.,2.3));
#1104=CARTESIAN_POINT('Origin',(45.1,0.,1.3));
#1105=CARTESIAN_POINT('',(46.1,-24.,1.3));
#1106=CARTESIAN_POINT('',(46.1,-12.,1.3));
#1107=CARTESIAN_POINT('',(45.1,-24.,2.3));
#1108=CARTESIAN_POINT('Origin',(45.1,-24.,1.3));
#1109=CARTESIAN_POINT('',(45.1,-24.,2.3));
#1110=CARTESIAN_POINT('Origin',(31.1,-24.,2.3));
#1111=CARTESIAN_POINT('',(32.1,-24.,2.3));
#1112=CARTESIAN_POINT('',(27.575,-24.,2.3));
#1113=CARTESIAN_POINT('',(32.1,0.,2.3));
#1114=CARTESIAN_POINT('',(32.1,-24.,2.3));
#1115=CARTESIAN_POINT('',(31.1,0.,2.3));
#1116=CARTESIAN_POINT('Origin',(32.1,-24.,1.3));
#1117=CARTESIAN_POINT('',(31.1,0.,1.3));
#1118=CARTESIAN_POINT('Origin',(32.1,0.,1.3));
#1119=CARTESIAN_POINT('',(31.1,-24.,1.3));
#1120=CARTESIAN_POINT('Origin',(32.1,-24.,1.3));
#1121=CARTESIAN_POINT('',(31.1,-12.,1.3));
#1122=CARTESIAN_POINT('Origin',(16.,-24.,1.3));
#1123=CARTESIAN_POINT('',(17.,0.,1.3));
#1124=CARTESIAN_POINT('',(16.,0.,2.3));
#1125=CARTESIAN_POINT('Origin',(16.,0.,1.3));
#1126=CARTESIAN_POINT('',(17.,-24.,1.3));
#1127=CARTESIAN_POINT('',(17.,-12.,1.3));
#1128=CARTESIAN_POINT('',(16.,-24.,2.3));
#1129=CARTESIAN_POINT('Origin',(16.,-24.,1.3));
#1130=CARTESIAN_POINT('',(16.,-24.,2.3));
#1131=CARTESIAN_POINT('Origin',(2.00000000000003,-24.,2.3));
#1132=CARTESIAN_POINT('',(3.00000000000003,-24.,2.3));
#1133=CARTESIAN_POINT('',(13.025,-24.,2.3));
#1134=CARTESIAN_POINT('',(3.00000000000003,0.,2.3));
#1135=CARTESIAN_POINT('',(3.00000000000003,-24.,2.3));
#1136=CARTESIAN_POINT('',(17.,0.,2.3));
#1137=CARTESIAN_POINT('Origin',(3.00000000000003,-24.,1.3));
#1138=CARTESIAN_POINT('',(2.00000000000003,0.,1.3));
#1139=CARTESIAN_POINT('Origin',(3.00000000000003,0.,1.3));
#1140=CARTESIAN_POINT('',(2.00000000000003,-24.,1.3));
#1141=CARTESIAN_POINT('Origin',(3.00000000000003,-24.,1.3));
#1142=CARTESIAN_POINT('',(2.00000000000003,-12.,1.3));
#1143=CARTESIAN_POINT('Origin',(3.00000000000003,-24.,-3.33066907387547E-15));
#1144=CARTESIAN_POINT('',(2.00000000000003,0.,0.));
#1145=CARTESIAN_POINT('',(3.00000000000003,0.,-1.));
#1146=CARTESIAN_POINT('Origin',(3.00000000000003,0.,-3.33066907387547E-15));
#1147=CARTESIAN_POINT('',(2.00000000000003,-24.,0.));
#1148=CARTESIAN_POINT('',(2.00000000000003,-12.,0.));
#1149=CARTESIAN_POINT('',(3.00000000000003,-24.,-1.));
#1150=CARTESIAN_POINT('Origin',(3.00000000000003,-24.,-3.33066907387547E-15));
#1151=CARTESIAN_POINT('',(3.00000000000003,-24.,-1.));
#1152=CARTESIAN_POINT('Origin',(17.,-24.,-1.));
#1153=CARTESIAN_POINT('',(16.,-24.,-1.));
#1154=CARTESIAN_POINT('',(20.525,-24.,-1.));
#1155=CARTESIAN_POINT('',(16.,0.,-1.));
#1156=CARTESIAN_POINT('',(16.,-24.,-1.));
#1157=CARTESIAN_POINT('',(2.00000000000003,0.,-1.));
#1158=CARTESIAN_POINT('Origin',(32.1,-24.,-3.33066907387547E-15));
#1159=CARTESIAN_POINT('',(31.1,0.,0.));
#1160=CARTESIAN_POINT('',(32.1,0.,-1.));
#1161=CARTESIAN_POINT('Origin',(32.1,0.,-3.33066907387547E-15));
#1162=CARTESIAN_POINT('',(31.1,-24.,0.));
#1163=CARTESIAN_POINT('',(31.1,-12.,0.));
#1164=CARTESIAN_POINT('',(32.1,-24.,-1.));
#1165=CARTESIAN_POINT('Origin',(32.1,-24.,-3.33066907387547E-15));
#1166=CARTESIAN_POINT('',(32.1,-24.,-1.));
#1167=CARTESIAN_POINT('Origin',(46.1,-24.,-1.));
#1168=CARTESIAN_POINT('',(45.1,-24.,-1.));
#1169=CARTESIAN_POINT('',(35.075,-24.,-1.));
#1170=CARTESIAN_POINT('',(45.1,0.,-1.));
#1171=CARTESIAN_POINT('',(45.1,-24.,-1.));
#1172=CARTESIAN_POINT('',(46.1,0.,-1.));
#1173=CARTESIAN_POINT('Origin',(45.1,-24.,-3.33066907387547E-15));
#1174=CARTESIAN_POINT('',(46.1,0.,0.));
#1175=CARTESIAN_POINT('Origin',(45.1,0.,-3.33066907387547E-15));
#1176=CARTESIAN_POINT('',(46.1,-24.,0.));
#1177=CARTESIAN_POINT('Origin',(45.1,-24.,-3.33066907387547E-15));
#1178=CARTESIAN_POINT('',(46.1,-12.,-2.29808287303811E-31));
#1179=CARTESIAN_POINT('Origin',(16.,-24.,-3.33066907387547E-15));
#1180=CARTESIAN_POINT('',(17.,0.,0.));
#1181=CARTESIAN_POINT('Origin',(16.,0.,-3.33066907387547E-15));
#1182=CARTESIAN_POINT('',(17.,-24.,0.));
#1183=CARTESIAN_POINT('Origin',(16.,-24.,-3.33066907387547E-15));
#1184=CARTESIAN_POINT('',(17.,-12.,0.));
#1185=CARTESIAN_POINT('Origin',(48.1,0.,-2.39778278076211E-31));
#1186=CARTESIAN_POINT('',(0.,0.,0.));
#1187=CARTESIAN_POINT('',(36.075,0.,0.));
#1188=CARTESIAN_POINT('',(0.,-24.,0.));
#1189=CARTESIAN_POINT('',(0.,0.,0.));
#1190=CARTESIAN_POINT('',(0.,-24.,0.));
#1191=CARTESIAN_POINT('Origin',(48.1,0.,-2.39778278076211E-31));
#1192=CARTESIAN_POINT('',(36.075,0.,0.));
#1193=CARTESIAN_POINT('',(0.,-24.,0.));
#1194=CARTESIAN_POINT('Origin',(48.1,0.,-2.39778278076211E-31));
#1195=CARTESIAN_POINT('',(0.,-24.,0.));
#1196=CARTESIAN_POINT('',(36.075,0.,0.));
#1197=CARTESIAN_POINT('Origin',(24.05,-24.,0.65));
#1198=CARTESIAN_POINT('',(49.1,-24.,2.5));
#1199=CARTESIAN_POINT('',(48.3,-24.,3.3));
#1200=CARTESIAN_POINT('Origin',(48.3,-24.,2.5));
#1201=CARTESIAN_POINT('',(-0.19999999999996,-24.,3.3));
#1202=CARTESIAN_POINT('',(48.3,-24.,3.3));
#1203=CARTESIAN_POINT('',(-0.999999999999961,-24.,2.5));
#1204=CARTESIAN_POINT('Origin',(-0.199999999999961,-24.,2.5));
#1205=CARTESIAN_POINT('',(-0.999999999999961,-24.,-1.2));
#1206=CARTESIAN_POINT('',(-0.999999999999962,-24.,2.5));
#1207=CARTESIAN_POINT('',(-0.19999999999996,-24.,-2.));
#1208=CARTESIAN_POINT('Origin',(-0.199999999999963,-24.,-1.2));
#1209=CARTESIAN_POINT('',(48.3,-24.,-2.));
#1210=CARTESIAN_POINT('',(-0.199999999999963,-24.,-2.));
#1211=CARTESIAN_POINT('',(49.1,-24.,-1.2));
#1212=CARTESIAN_POINT('Origin',(48.3,-24.,-1.2));
#1213=CARTESIAN_POINT('',(49.1,-24.,-1.2));
#1214=CARTESIAN_POINT('',(48.1,-24.,1.3));
#1215=CARTESIAN_POINT('',(48.1,-24.,1.3));
#1216=CARTESIAN_POINT('',(48.1,-24.,1.3));
#1217=CARTESIAN_POINT('',(48.1,-24.,0.));
#1218=CARTESIAN_POINT('',(48.1,-24.,-2.39778278076211E-31));
#1219=CARTESIAN_POINT('',(0.,-24.,0.));
#1220=CARTESIAN_POINT('',(0.,-24.,1.3));
#1221=CARTESIAN_POINT('',(-1.92592994438724E-33,-24.,1.3));
#1222=CARTESIAN_POINT('',(48.1,-24.,1.3));
#1223=CARTESIAN_POINT('',(48.1,-24.,1.3));
#1224=CARTESIAN_POINT('Origin',(0.,0.,1.3));
#1225=CARTESIAN_POINT('',(-1.92592994438724E-33,0.,1.3));
#1226=CARTESIAN_POINT('',(-1.92592994438724E-33,0.,1.3));
#1227=CARTESIAN_POINT('',(12.025,0.,1.3));
#1228=CARTESIAN_POINT('Origin',(0.,0.,1.3));
#1229=CARTESIAN_POINT('',(12.025,0.,1.3));
#1230=CARTESIAN_POINT('Origin',(0.,0.,1.3));
#1231=CARTESIAN_POINT('',(48.1,0.,1.3));
#1232=CARTESIAN_POINT('',(12.025,0.,1.3));
#1233=CARTESIAN_POINT('',(48.1,0.,1.3));
#1234=CARTESIAN_POINT('Origin',(0.,0.,0.));
#1235=CARTESIAN_POINT('',(0.,0.,0.325));
#1236=CARTESIAN_POINT('Origin',(48.1,0.,-2.39778278076211E-31));
#1237=CARTESIAN_POINT('',(48.1,0.,-2.39778278076211E-31));
#1238=CARTESIAN_POINT('',(48.1,0.,-2.39778278076211E-31));
#1239=CARTESIAN_POINT('',(36.075,0.,0.));
#1240=CARTESIAN_POINT('Origin',(48.1,0.,1.3));
#1241=CARTESIAN_POINT('',(48.1,0.,0.975));
#1242=CARTESIAN_POINT('Origin',(0.,0.,1.3));
#1243=CARTESIAN_POINT('',(12.025,0.,1.3));
#1244=CARTESIAN_POINT('Origin',(-0.19999999999996,0.,3.3));
#1245=CARTESIAN_POINT('',(48.3,0.8,3.3));
#1246=CARTESIAN_POINT('',(48.3,0.,3.3));
#1247=CARTESIAN_POINT('',(-0.19999999999996,0.8,3.3));
#1248=CARTESIAN_POINT('',(48.3,0.8,3.3));
#1249=CARTESIAN_POINT('',(-0.199999999999961,0.,3.3));
#1250=CARTESIAN_POINT('Origin',(-0.199999999999961,0.,2.5));
#1251=CARTESIAN_POINT('',(-0.999999999999961,0.8,2.5));
#1252=CARTESIAN_POINT('Origin',(-0.199999999999961,0.8,2.5));
#1253=CARTESIAN_POINT('',(-0.999999999999962,0.,2.5));
#1254=CARTESIAN_POINT('Origin',(-0.999999999999963,0.,-1.2));
#1255=CARTESIAN_POINT('',(-0.999999999999961,0.8,-1.2));
#1256=CARTESIAN_POINT('',(-0.999999999999962,0.8,2.5));
#1257=CARTESIAN_POINT('',(-0.999999999999963,0.,-1.2));
#1258=CARTESIAN_POINT('Origin',(-0.199999999999963,0.,-1.2));
#1259=CARTESIAN_POINT('',(-0.19999999999996,0.8,-2.));
#1260=CARTESIAN_POINT('Origin',(-0.199999999999963,0.8,-1.2));
#1261=CARTESIAN_POINT('',(-0.199999999999963,0.,-2.));
#1262=CARTESIAN_POINT('Origin',(48.3,0.,-2.));
#1263=CARTESIAN_POINT('',(48.3,0.8,-2.));
#1264=CARTESIAN_POINT('',(-0.199999999999963,0.8,-2.));
#1265=CARTESIAN_POINT('',(48.3,0.,-2.));
#1266=CARTESIAN_POINT('Origin',(48.3,0.,-1.2));
#1267=CARTESIAN_POINT('',(49.1,0.8,-1.2));
#1268=CARTESIAN_POINT('Origin',(48.3,0.8,-1.2));
#1269=CARTESIAN_POINT('',(49.1,0.,-1.2));
#1270=CARTESIAN_POINT('Origin',(49.1,0.,2.5));
#1271=CARTESIAN_POINT('',(49.1,0.8,2.5));
#1272=CARTESIAN_POINT('',(49.1,0.8,-1.2));
#1273=CARTESIAN_POINT('',(49.1,0.,2.5));
#1274=CARTESIAN_POINT('Origin',(48.3,0.,2.5));
#1275=CARTESIAN_POINT('Origin',(48.3,0.8,2.5));
#1276=CARTESIAN_POINT('Origin',(24.05,0.8,0.65));
#1277=CARTESIAN_POINT('Origin',(24.05,0.,0.65));
#1278=UNCERTAINTY_MEASURE_WITH_UNIT(LENGTH_MEASURE(0.01),#1282,
'DISTANCE_ACCURACY_VALUE',
'Maximum model space distance between geometric entities at asserted c
onnectivities');
#1279=UNCERTAINTY_MEASURE_WITH_UNIT(LENGTH_MEASURE(0.01),#1282,
'DISTANCE_ACCURACY_VALUE',
'Maximum model space distance between geometric entities at asserted c
onnectivities');
#1280=(
GEOMETRIC_REPRESENTATION_CONTEXT(3)
GLOBAL_UNCERTAINTY_ASSIGNED_CONTEXT((#1278))
GLOBAL_UNIT_ASSIGNED_CONTEXT((#1282,#1284,#1285))
REPRESENTATION_CONTEXT('','3D')
);
#1281=(
GEOMETRIC_REPRESENTATION_CONTEXT(3)
GLOBAL_UNCERTAINTY_ASSIGNED_CONTEXT((#1279))
GLOBAL_UNIT_ASSIGNED_CONTEXT((#1282,#1284,#1285))
REPRESENTATION_CONTEXT('','3D')
);
#1282=(
LENGTH_UNIT()
NAMED_UNIT(*)
SI_UNIT(.MILLI.,.METRE.)
);
#1283=(
LENGTH_UNIT()
NAMED_UNIT(*)
SI_UNIT($,.METRE.)
);
#1284=(
NAMED_UNIT(*)
PLANE_ANGLE_UNIT()
SI_UNIT($,.RADIAN.)
);
#1285=(
NAMED_UNIT(*)
SI_UNIT($,.STERADIAN.)
SOLID_ANGLE_UNIT()
);
#1286=SHAPE_DEFINITION_REPRESENTATION(#1287,#1288);
#1287=PRODUCT_DEFINITION_SHAPE('',$,#1290);
#1288=SHAPE_REPRESENTATION('',(#766),#1280);
#1289=PRODUCT_DEFINITION_CONTEXT('part definition',#1294,'design');
#1290=PRODUCT_DEFINITION('Expansion Cover 2','Expansion Cover 2 v2',#1291,
#1289);
#1291=PRODUCT_DEFINITION_FORMATION('',$,#1296);
#1292=PRODUCT_RELATED_PRODUCT_CATEGORY('Expansion Cover 2 v2',
'Expansion Cover 2 v2',(#1296));
#1293=APPLICATION_PROTOCOL_DEFINITION('international standard',
'automotive_design',2009,#1294);
#1294=APPLICATION_CONTEXT(
'Core Data for Automotive Mechanical Design Process');
#1295=PRODUCT_CONTEXT('part definition',#1294,'mechanical');
#1296=PRODUCT('Expansion Cover 2','Expansion Cover 2 v2',$,(#1295));
#1297=PRESENTATION_STYLE_ASSIGNMENT((#1298));
#1298=SURFACE_STYLE_USAGE(.BOTH.,#1299);
#1299=SURFACE_SIDE_STYLE('',(#1300));
#1300=SURFACE_STYLE_FILL_AREA(#1301);
#1301=FILL_AREA_STYLE('Plastic - Glossy (White)',(#1302));
#1302=FILL_AREA_STYLE_COLOUR('Plastic - Glossy (White)',#1303);
#1303=COLOUR_RGB('Plastic - Glossy (White)',0.964705882352941,0.964705882352941,
0.952941176470588);
ENDSEC;
END-ISO-10303-21;
